<svg width="169" height="204" viewBox="0 0 169 204" fill="none" xmlns="http://www.w3.org/2000/svg">
<path d="M55 204H33V180H55V204ZM94 204H72V180H94V204ZM134 204H112V180H134V204ZM84.5 0C131.168 0 169 38.9512 169 87C169 116.014 155.205 141.709 134 157.516V174H32V155.173C12.5036 139.236 0 114.622 0 87C0 38.9512 37.8319 0 84.5 0ZM84.5 117C73 117 72.5 137.5 73.5 141C74.5001 144.5 94.9999 144.5 95 141C95 137.5 96 117 84.5 117ZM46.5 62C34.0736 62 24 72.0736 24 84.5C24 96.9264 34.0736 107 46.5 107C58.9264 107 69 96.9264 69 84.5C69 72.0736 58.9264 62 46.5 62ZM120.5 62C108.074 62 98 72.0736 98 84.5C98 96.9264 108.074 107 120.5 107C132.926 107 143 96.9264 143 84.5C143 72.0736 132.926 62 120.5 62Z" fill="#383737"/>
</svg>
